<?xml version="1.0" standalone="no"?>
<!DOCTYPE svg PUBLIC "-//W3C//DTD SVG 20010904//EN"
 "http://www.w3.org/TR/2001/REC-SVG-20010904/DTD/svg10.dtd">
<svg version="1.0" xmlns="http://www.w3.org/2000/svg"
 width="512.000000pt" height="512.000000pt" viewBox="0 0 512.000000 512.000000"
 preserveAspectRatio="xMidYMid meet">
<metadata>
Created by potrace 1.11, written by Peter Selinger 2001-2013
</metadata>
<g transform="translate(0.000000,512.000000) scale(0.100000,-0.100000)"
fill="#000000" stroke="none">
<path d="M1869 3304 c-376 -339 -732 -660 -791 -713 -67 -61 -102 -99 -95
-103 7 -4 112 -8 234 -8 l223 0 2 -642 3 -643 395 0 395 0 3 483 2 482 320 0
320 0 2 -482 3 -483 398 -3 397 -2 0 645 0 645 223 0 c122 0 228 4 235 8 9 6
-13 32 -76 88 -48 43 -404 364 -790 712 -386 347 -706 632 -710 632 -5 0 -316
-277 -693 -616z"/>
</g>
</svg>
